<?xml version="1.0" encoding="UTF-8"?>
<!DOCTYPE svg PUBLIC "-//W3C//DTD SVG 1.1//EN" "http://www.w3.org/Graphics/SVG/1.1/DTD/svg11.dtd">
<!-- Creator: CorelDRAW 2020 (64 Bit) -->
<svg xmlns="http://www.w3.org/2000/svg" xml:space="preserve" width="63.1477mm" height="31.2931mm" version="1.1" style="shape-rendering:geometricPrecision; text-rendering:geometricPrecision; image-rendering:optimizeQuality; fill-rule:evenodd; clip-rule:evenodd"
viewBox="0 0 6314.76 3129.31"
 xmlns:xlink="http://www.w3.org/1999/xlink"
 xmlns:xodm="http://www.corel.com/coreldraw/odm/2003">
 <defs>
  <style type="text/css">
   <![CDATA[
    .str0 {stroke:black;stroke-width:100;stroke-miterlimit:22.9256}
    .fil0 {fill:none}
    .fil2 {fill:black}
    .fil1 {fill:black;fill-rule:nonzero}
   ]]>
  </style>
 </defs>
 <g id="Camada_x0020_1">
  <metadata id="CorelCorpID_0Corel-Layer"/>
  <path class="fil0 str0" d="M1807.08 2251.55l-1757.08 0 0 -1373.79 1757.08 0c250.41,-491.28 761.07,-827.76 1350.3,-827.76 589.23,0 1099.89,336.48 1350.3,827.76l1757.09 0 0 1373.79 -1757.09 0c-250.41,491.28 -761.07,827.76 -1350.3,827.76 -589.23,0 -1099.89,-336.48 -1350.3,-827.76z"/>
  <path class="fil1" d="M674.86 1101.79l15.82 5.46 0 49.82c0,25.64 -17.82,40.35 -53.48,44.35l5.41 5.67 -15.82 28.38 5.2 38.68 -10.61 11.14 0 38.67 5.41 5.68 -5.41 5.46 0 5.47 10.61 44.35 0 16.81c-21.03,52.76 -31.65,89.97 -31.65,111.41l31.65 99.63 -10.61 33.41 0 39.31 15.82 77.57 -15.82 50.02 0 22.07c0,19.76 24.84,51.29 74.51,94.8l-10.42 38.88 -5.4 0c-18.23,0 -34.26,-5.67 -48.08,-16.6l-10.61 0 -47.47 5.46c-16.84,-2.94 -30.86,-12.19 -42.28,-27.74l-111.36 -61.59 10.41 -27.75c-24.64,-5.67 -36.86,-14.92 -36.86,-27.53l5.21 -5.68 0 -5.46 -52.88 -138.52c7.21,-16.4 10.62,-46.24 10.62,-89.33l-15.83 -88.7c0,-78.41 21.03,-128.43 63.3,-150.29l5.41 -5.46 0 -5.68 -15.83 -27.53c9.02,-18.92 24.84,-35.53 47.48,-50.03 5.81,-27.11 46.47,-64.11 121.99,-111.41 0,-8.61 37.25,-19.75 111.57,-33.2zm116.18 5.46c0,9.88 26.64,24.59 79.93,44.35 24.64,0 47.47,-12.82 68.5,-38.67l10.62 0c17.63,9.24 26.44,26.06 26.44,49.81 0,18.5 -3.61,27.75 -10.62,27.75 7.01,9.03 12.43,38.68 15.83,89.33l-5.21 94.17 15.83 44.34c-10.22,26.28 -26.04,39.31 -47.48,39.31 0,-9.88 -8.82,-17.23 -26.44,-22.07l-42.26 -150.28c-9.02,0 -23.24,-13.04 -42.87,-38.89 -17.63,-2.74 -26.44,-8.41 -26.44,-16.6l5.4 -22.71c-17.62,-13.66 -44.07,-22.9 -79.32,-27.74 0,-40.57 10.61,-60.96 31.65,-60.96 0,-7.36 8.81,-11.14 26.44,-11.14zm185.49 617.13l5.21 5.47c-4.21,57.37 -14.83,100.04 -31.65,127.58 -24.64,0 -37.06,14.93 -37.06,44.77l-79.72 27.75 0 -5.47 -58.09 60.96 -31.66 0c-14.02,-6.1 -21.22,-19.12 -21.22,-38.89l0 -22.07c0,-6.51 45.86,-30.89 137.41,-72.73 39.06,-84.91 78.12,-127.37 116.78,-127.37zm445.49 -622.59c14.02,3.57 21.04,13.03 21.04,28.38 -11.02,35.72 -32.26,61.79 -63.91,78.18l-10.61 67.06 0 50.45 5.21 39.51c-14.03,1.89 -21.03,7.57 -21.03,16.61l5.2 6.09 0 5.46 -10.41 38.89 10.41 33.84 -5.2 28.38 10.61 11.14 0 10.93 -10.61 16.82 0 17.23 10.61 16.61 0 22.06 -5.41 6.1 10.62 22.28 -10.62 33.84 0 101.1 -10.41 16.61 0 27.53c0,17.03 26.43,58.23 79.72,123.81 0,41.19 -7.01,61.58 -21.03,61.58 -15.03,-14.71 -50.48,-27.94 -106.97,-39.3 -79.73,-41.83 -131.6,-96.06 -155.44,-162.69 0,-16.39 -8.81,-40.56 -26.45,-72.52 0,-9.04 -12.41,-29.63 -37.45,-61.59l-5.41 -28.37c14.23,-22.7 21.23,-39.52 21.23,-50.44l-5.4 -72.73c14.62,-33.21 25.24,-89.54 32.24,-168.78l16.03 -16.61 -5.41 -50.45c14.43,0 21.84,-9.46 21.84,-28.38 32.05,0 48.07,-14.7 48.07,-44.35l53.28 -39.3 31.85 5.46c22.24,-14.71 66.91,-31.53 133.81,-50.44zm111.98 11.14c64.1,12.18 96.35,30.89 96.35,55.91 7.81,7.78 27.24,11.76 58.69,11.76 25.03,34.9 37.46,62.86 37.46,83.67 26.64,0 55.28,74.82 85.73,224.27l5.21 6.1c-14.02,28.38 -21.04,73.14 -21.04,134.31l5.21 50.45c-10.21,37.41 -22.64,55.91 -37.46,55.91 0,73.57 -37.45,127.79 -112.17,162.69 -23.44,37.42 -71.51,55.91 -144.43,55.91 -16.02,18.92 -32.05,28.37 -48.07,28.37l-5.21 -16.6c0,-40.57 21.23,-72.52 63.9,-95.42 7.41,-41.84 16.43,-64.33 27.05,-67.06l-5.81 -6.31 0 -10.92 5.81 -56.12c-21.64,-67.26 -32.26,-117.71 -32.26,-151.56 0,-20.39 10.62,-39.09 32.26,-55.9l5.2 -44.98 -32.25 -72.73 21.24 -84.29 -21.24 -39.52 5.21 -27.54 0 -16.81c0,-27.74 -17.63,-54.02 -53.28,-78.82l0 -5.47 5.21 -28.37 15.82 0 42.87 -10.93zm376.78 -11.14c40.27,0 72.91,9.46 97.95,28.38 16.63,0 32.85,-5.89 48.88,-17.24l59.9 0c93.74,10.93 140.81,26.27 140.81,45.4 0,42.67 23.44,77.14 70.31,103 21.64,41.41 36.05,84.91 43.46,130.53l27.05 51.07 -5.41 6.09 0 16.61c93.95,106.35 140.83,184.13 140.83,233.53l-5.21 5.47 0 6.08 5.21 28.39 -5.21 45.61c14.41,0 21.63,20.59 21.63,62.21 0,41.83 -5.41,64.53 -16.42,68.32l5.4 5.46 0 17.23 -10.61 17.24 5.21 17.23 -5.21 0 -27.65 11.15c-115.38,-25.01 -173.07,-59.07 -173.07,-102.15 -12.42,0 -23.44,-22.92 -32.85,-68.32 -7.01,0 -10.62,-7.78 -10.62,-22.91 -17.82,0 -26.84,-19.13 -26.84,-57.17 -47.07,-45.19 -70.51,-85.13 -70.51,-119.61 -5.4,0 -21.83,-32.15 -49.28,-96.68 -9.41,0 -21.83,-26.49 -37.65,-79.24 -22.24,-6.31 -45.68,-53.61 -70.31,-142.3 -65.71,-87.02 -107.37,-130.53 -124.99,-130.53 -10.62,0 -19.64,-7.57 -27.05,-22.92 21.63,-19.34 32.25,-32.57 32.25,-39.93zm537.04 17.24c19.82,0 50.68,7.55 92.14,22.69l5.2 0 21.84 -17.24 21.63 0c27.44,0 43.68,11.36 48.68,33.85 0,15.35 -10.82,25.01 -32.25,29 0,6.1 -18.03,23.13 -54.08,51.08l-5.82 45.61 5.82 84.92 -21.63 170.68 0 29.01c-28.85,-17.67 -43.47,-46.24 -43.47,-85.77l15.82 -56.53c-10.41,-20.18 -17.63,-52.34 -21.63,-96.69l11.22 -45.62c0,-9.03 -12.82,-22.28 -38.26,-39.93l-5.21 -22.92 5.21 -5.45 0 -34.48 -37.46 -33.84 0 -22.92 32.25 -5.45zm-450.11 216.07c12.43,19.76 28.65,65.37 48.68,136.84l0 67.68 -10.62 22.7 21.84 96.69 0 6.09c0,31.74 -7.21,77.14 -21.84,136.21 7.02,0 16.03,26.69 27.05,80.09l5.21 5.46 6.01 0 5.2 -5.46 5.21 0c29.05,9.88 43.47,19.33 43.47,28.37l0 28.16 -10.41 34.47 -119.8 -11.55c-21.63,1.26 -32.25,5.04 -32.25,11.55l-21.83 -11.55 -32.85 5.47 -10.62 -11.15 0 -28.16c43.47,-25.22 65.3,-57.39 65.3,-96.69l10.42 -17.24 -5.21 -40.15 38.06 -73.77 0 -28.38 -38.06 -119.6 5.21 -85.55 -5.21 0 5.21 -5.46 0 -79.45 6.01 -6.1 -6.01 -5.68 0 -5.46c7.22,-17.24 14.42,-26.7 21.83,-28.38z"/>
  <path class="fil1" d="M4418.64 1107.77l5.35 5.47 11.52 11.13 5.35 0 -10.91 45.4 22.43 62.84 22.22 22.9 0 119.39c10.9,10.29 25.51,55.89 44.02,136.6l22.23 22.91 -5.36 5.47 0 22.91 5.36 22.69 -5.36 22.7 33.74 102.35 -5.96 0 16.87 28.16 -16.87 29.01c12.75,0 24.07,22.9 33.74,68.3l-5.35 39.51c0,11.56 16.66,22.91 50,34.48l16.24 45.6 -22.42 16.6 -5.35 0 -16.25 -11.14 -11.53 0 -72.21 22.91 -5.55 0 -22.22 -5.67 -22.42 5.67 -11.31 0 -27.78 -17.23 -116.86 17.23c-19.33,0 -34.15,-9.45 -44.64,-28.37l0 -6.3c22.43,-13.88 33.74,-38.46 33.74,-73.78l-11.52 -39.51 5.55 -6.1 -10.9 -51.06 5.35 -5.47 0 -22.91 -49.99 0 -44.65 11.14c-9.67,-7.35 -27.97,-11.14 -55.34,-11.14l-5.97 -5.46 0 -51.7c0,-7.36 11.11,-13.03 33.74,-16.6l22.23 22.69 38.47 0 28.39 -6.09 -16.87 -96.68 5.55 -33.83c-11.32,0 -24.48,-41.83 -39.3,-125.06l5.97 -17.23 -49.99 -182.22 5.55 -16.6 -5.55 -51.91c2.88,-22.49 13.99,-33.84 33.12,-33.84l27.78 5.68 183.92 -33.84zm-267.04 193.35l5.35 0 5.56 17.24 -5.56 16.6 5.56 57.16c0,49.61 -11.11,89.54 -33.34,119.38 0,47.71 -14.8,100.88 -44.44,159.52l5.35 16.61 -5.35 40.14 5.35 39.93 -16.86 5.67 5.34 33.84 -16.25 45.61 0 5.46c0,33.21 24.07,52.34 72.42,57.16l10.9 0 0 5.69c0,45.39 -12.96,68.3 -38.67,68.3l-66.87 0c-12.55,0 -25.51,-5.68 -39.29,-17.24l-77.77 17.24c-14.4,0 -27.36,-21.02 -39.09,-62.85l0 -11.14c44.65,0 66.86,-20.8 66.86,-62.62 34.16,-35.1 65.84,-95.63 94.64,-181.8l-5.35 -17.24 60.9 -210.58 11.32 -11.56 -5.35 -16.6c0,-46.45 14.81,-84.5 44.64,-113.92zm908.1 -195.24l6.17 5.46 32.51 0c0,10.3 9.26,19.76 27.78,28.37l5.34 33.85c-40.12,0 -60.27,13.23 -60.27,39.5l-11.53 39.31 6.17 5.46 0 5.68 -16.87 33.83 5.35 16.61 -5.35 17.22c0,59.91 9.26,89.96 27.57,89.96l-5.34 39.31 0 101.09 10.89 22.69 -33.12 78.82 33.12 134.92 0 39.3 -5.55 33.84c0,7.57 18.31,26.06 54.93,56.11l-33.12 62.22c-28.19,-3.78 -55.75,-14.92 -82.7,-33.84l-71.6 17.23c-15.23,-10.29 -39.09,-17.86 -71.18,-22.9l-38.47 22.9 -33.33 0c-26.75,0 -50.82,-11.35 -71.6,-33.83l0 -11.78 54.73 -33.2 22.42 -51.07 -5.55 -50.65c0,-18.71 3.69,-28.16 10.9,-28.16l-10.9 -95.42 5.55 -5.67 0 -5.47 -10.91 -67.68 0 -78.81 -5.35 -5.67 5.35 -5.47 0 -11.14c0,-18.91 -3.7,-28.36 -11.51,-28.36l22.42 -89.75 -10.91 -34.05 10.91 -78.81c0,-26.91 -20.36,-51.5 -60.9,-73.14l-5.34 -39.51 0 -5.47c54.1,-11.55 118.49,-19.12 192.76,-22.69l5.35 -5.68 60.9 5.68c40.33,-2.11 60.28,-5.88 60.28,-11.14zm400.15 0l33.12 0c18.52,0 29.63,7.56 33.33,22.69l-5.56 16.61 10.91 62.84 -5.35 33.84 11.32 16.6 -5.97 6.31 0 28.16c0,35.73 -7.2,69.56 -21.8,101.72l0 5.47c18.51,46.44 27.77,84.27 27.77,113.27l-11.32 45.61 0 62.21 -22.42 67.67 5.97 40.15 -5.97 22.7c10.49,0 19.75,39.72 27.77,118.74l5.97 28.38 38.67 28.36 0 28.38 -10.91 11.14 -72.41 0 -38.47 11.56 -33.74 -11.56 0 5.46 -33.12 -11.14 -5.56 0 -83.12 17.24 -27.77 -6.1 -16.87 11.77c-44.23,-2.94 -66.24,-8.61 -66.24,-17.23 0,-52.96 14.81,-79.45 44.64,-79.45l44.03 -78.81c0,-26.69 -11.11,-59.05 -33.33,-96.68l0 -5.67 10.9 -51.07 -5.34 -101.52 5.34 -45.6 -5.34 -16.6 16.86 -85.12 -5.55 -34.47 5.55 -33.84 -5.55 -5.46 0 -5.47 5.55 -28.37 -5.55 -22.91 5.55 -5.47 -16.86 -17.22 11.31 -16.61 0 -6.09c0,-6.73 -18.31,-19.76 -55.35,-39.52l-11.51 -62.21 33.12 -11.55 22.43 0 22.21 17.23 5.56 0 5.35 -5.68 44.64 11.14 94.02 -11.14 0 5.68 39.09 -28.37zm133.31 11.14l49.38 11.55 66.86 0c47.52,0 80.65,13.24 99.57,39.52 20.37,0 35.19,13.24 44.44,39.93 13.38,0 27.98,22.7 44.03,67.67l5.97 0 -11.32 147.33 5.35 5.47c-8.03,0.83 -33.74,29.21 -77.15,84.9 -17.28,0 -43.2,18.92 -77.76,56.75l0 11.56 33.12 0c74.47,0 118.91,35.72 133.31,107.18l5.35 6.31 -5.35 28.17 5.35 28.37c-6.38,7.77 -11.94,34.05 -16.87,78.81 5.76,15.13 11.32,22.7 16.87,22.7l5.56 0 72.21 -22.7 16.25 34.46c-47.73,71.46 -90.12,107.19 -127.15,107.19 0,11.56 -3.7,17.24 -11.51,17.24l-27.57 -5.47 -27.78 5.47c-48.96,-1.27 -100.59,-31.53 -154.92,-90.58l-5.34 -45.61 5.34 -39.3 -22.21 -56.75 10.7 -33.83c0,-75.46 -14.61,-113.29 -44.02,-113.29 -14.82,0 -22.23,-26.48 -22.23,-79.44 33.33,-9.46 50,-28.16 50,-56.54l16.25 -90.58 -16.25 -79.44 5.55 -28.38c0,-36.14 -18.52,-68.09 -55.55,-96.05l-5.35 -56.53 16.87 -6.09z"/>
  <path class="fil2" d="M3405.05 1341.68c-17.62,-24.85 -28.88,-21.6 -54.19,-39.64 0.89,-18.8 11.94,-22.67 8.28,-66.62l54.49 -18.47c8.07,-2.93 20.95,-6.81 28.48,-10.25 2.42,-1.1 9.54,-4.57 11.67,-5.86 13.31,-7.85 6.37,-3.01 14.49,-11.32l11.49 2.5c15.78,-4.65 22.77,-6.21 36.09,-11.78 30.46,-12.72 17.74,-4.41 30.68,-20.49l42.95 -15.71 45.71 -21.7 26.74 -16.86c8.9,-5.38 15.92,-8.47 22.5,-14.44 26.68,-24.18 2.69,0.02 16.65,-21.25 42.03,-10 82.18,-66.58 96.97,-108.59l-70.24 17.72 -1.42 -2.5c19.57,-27.86 43.56,-37.4 65.88,-67.04 18.13,-24.02 35.74,-53.87 54.84,-78.66 1.39,-13.12 4.11,-9.57 -9.55,-9.52l-203.07 70.22 -0.75 -10.33c60.91,-23.85 139.01,-66.32 186.39,-101.06 39.51,-28.97 115.83,-106.93 120.13,-159.69l-8.39 -7.02c-32.35,4.14 -194.89,94.85 -237.32,116.66 -45.88,23.59 -201.02,111.44 -238.19,117.25l-1.4 -3.58c123.44,-94.31 344.57,-182.25 494.5,-264.8 87.24,-48.06 163.45,-91.82 235.31,-145.6 52.81,-39.59 168.72,-140.38 187.71,-184.62l0.7 -2.09c-50.51,14.6 -103.73,56.77 -155.87,84.63 -238.94,127.82 -898.05,455.74 -1056.85,620.78l0.7 -9.01c22.46,-38.21 224.47,-170.23 283.37,-211.4 75.62,-52.84 242.86,-171.33 248.32,-255.72 5.33,-24.74 5.76,-6.51 -6.35,-13.2 -64.24,35.57 -226.89,186.93 -274.73,198.54 -11.19,25.71 -33.83,39.75 -58.84,48.03 3.93,-5.46 -1.91,0.59 9.87,-12.13 1.64,-1.72 8.82,-8.68 12.05,-11.77 11.02,-10.73 14.66,-13.85 28.77,-26.12 33.22,-18.1 105.23,-83.04 145.28,-112.49 176.55,-129.62 280.11,-194.75 400.13,-382.46l-12.43 -1.99c-83.12,66.1 -163.37,131.26 -257.03,200.02 -195.19,143.37 -220.71,172.2 -384.51,313.57 -71.19,61.37 -283.18,276.37 -298.86,378.48 -2.17,-33.96 4.93,3.69 -15.22,-11.59 -19.36,-17.83 -20.35,-18.69 -49.75,-27.4 51.02,95.57 -38.37,161.41 -51.77,177.35 -23.31,28.83 -52.57,76.16 -14.44,134.22 77.1,90.6 193.36,12.24 244.51,154.34 22.48,36.76 -131.53,142.91 -161.09,165.33l-13.34 11.14 -8.55 -9.5c-22.24,10.92 -45.02,23.56 -65.45,39.54 -17.05,13.31 -14.44,11.83 -27.94,29.52l-28.24 29.08c-20.76,15.22 -39.26,30.98 -53.89,63.11 -18.91,41.71 -7.7,52.33 15.24,75.11 12.02,-8.74 25.77,-36.49 45.64,-47.14 24.98,-13.34 46.09,-1.32 66.77,7.88 8.02,66.48 -26.86,30.76 -26.22,39.88 0.14,1.86 12.91,29.23 13.4,37.78 3.55,-0.94 25.03,-2.36 28.07,-3.25 67.29,-20.12 31.01,-37.73 94.64,-64.54 110.52,-46.55 261.61,-176.23 368.4,-153.45l12.34 60.29c-31.3,38.67 -71.86,122.44 -155.28,72.56l-59.43 7.5c-14.44,37.06 -38.86,67.07 -19.69,104.88l21.38 5.22c0.84,-12.02 9.47,1.42 -11.1,-16.32 2.18,-44.46 7.58,-5.95 29.15,-38.49 13.42,-20.03 -6.35,-41.3 20.28,-33.07 7.69,20.54 -20.74,51.82 -19.21,97.53 10.71,29.18 -7.12,15.76 24.02,26.25l-6.51 -33.29 36.76 -33.35c15.6,-10.08 28.19,1.08 30.96,1.53 37.51,11.25 29.15,20.68 55.88,42.28 -1.99,1.45 -5.24,0.48 -6.64,3.47l-24.72 8.39c-39.72,8.34 -1.93,-7.15 -17.64,2.07 18.75,38.67 44.86,17.83 71.05,8.34 5.22,-103.51 3.77,-81.22 105.55,-259.73l5.06 -66.88c81.21,-120.64 187.33,-123.52 273.5,-166.73 108.8,-54.6 194.37,-138.72 252.27,-217.03 -24.01,-39.58 156.73,-234.47 135.94,-234.55 -96.97,-1.27 -305.57,133.17 -417.07,158.31 -116.26,26.25 -188.97,105.13 -288.77,140.79z"/>
 </g>
</svg>
